<?xml version="1.0" encoding="UTF-8"?>
<svg xmlns="http://www.w3.org/2000/svg" xmlns:xlink="http://www.w3.org/1999/xlink" version="1.1" viewBox="0 0 800 200">
  <!-- Generator: Adobe Illustrator 30.3.0, SVG Export Plug-In . SVG Version: 2.1.3 Build 182)  -->
  <defs>
    <style>
      .st0 {
        fill: url(#linear-gradient1);
      }

      .st1 {
        fill: url(#linear-gradient);
      }

      .st2 {
        isolation: isolate;
      }

      .st3 {
        fill: #e2e8f0;
      }

      .st4 {
        fill: #fff;
      }

      .st5 {
        mix-blend-mode: screen;
        opacity: .5;
      }
    </style>
    <linearGradient id="linear-gradient" x1="346.5" y1="2.8" x2="219.6" y2="129.6" gradientTransform="translate(0 200) scale(1 -1)" gradientUnits="userSpaceOnUse">
      <stop offset="0" stop-color="#3b82f6"/>
      <stop offset="1" stop-color="#1d4ed8"/>
    </linearGradient>
    <linearGradient id="linear-gradient1" x1="203.2" y1="38.6" x2="75.3" y2="166.5" gradientTransform="translate(0 200) scale(1 -1)" gradientUnits="userSpaceOnUse">
      <stop offset="0" stop-color="#3b82f6"/>
      <stop offset="1" stop-color="#1d4ed8"/>
    </linearGradient>
  </defs>
  <g class="st2">
    <g id="Layer_1">
      <g>
        <g>
          <g>
            <path class="st1" d="M198.2,175.7L265.7,24.3h34.6l67.7,151.4h-36.8l-55.4-133.7h13.8l-55.6,133.7h-35.9ZM231.9,143.3l9.3-26.6h77.9l9.5,26.6h-96.7,0Z"/>
            <polygon class="st0" points="119.4 147.6 119.4 112.6 189.7 112.6 189.7 85.3 119.4 85.3 119.4 52.4 199 52.4 199 24.3 84.6 24.3 84.6 175.7 189 175.7 201.5 147.6 119.4 147.6"/>
          </g>
          <g class="st5">
            <g>
              <path class="st4" d="M198.2,175.7L265.7,24.3h34.6l67.7,151.4h-36.8l-55.4-133.7h13.8l-55.6,133.7h-35.9ZM231.9,143.3l9.3-26.6h77.9l9.5,26.6h-96.7,0Z"/>
              <polygon class="st4" points="119.4 147.6 119.4 112.6 189.7 112.6 189.7 85.3 119.4 85.3 119.4 52.4 199 52.4 199 24.3 84.6 24.3 84.6 175.7 189 175.7 201.5 147.6 119.4 147.6"/>
            </g>
          </g>
        </g>
        <g class="st2">
          <g class="st2">
            <path class="st3" d="M395.4,180.1c-2.4,0-4.8-.4-7.1-1.1-2.4-.8-4.2-1.8-5.6-3l6.3-9.8c1,.9,2.1,1.6,3.4,2.1,1.3.5,2.6.8,4.2.8s3.3-.4,4.6-1.3,2.6-2.4,3.9-4.5l3.8-6,1.2-1.4,24.9-40.6h13.5l-31.3,50.3c-2.3,3.7-4.6,6.6-6.7,8.7-2.1,2.1-4.4,3.6-6.7,4.5-2.4.9-5.1,1.3-8.1,1.3ZM405.8,164.2l-11.3-49h13.7l8.6,39.4-10.9,9.5Z"/>
          </g>
          <g class="st2">
            <path class="st3" d="M464.5,163.1c-3.6,0-7-.8-10.1-2.5-3.1-1.7-5.6-4.1-7.4-7.2-1.9-3.2-2.8-6.9-2.8-11.4s.7-7.6,2-10.9c1.3-3.3,3.2-6.2,5.6-8.7,2.4-2.5,5.2-4.4,8.3-5.7,3.2-1.4,6.5-2.1,10.2-2.1s7.3.7,10.1,2.2c2.8,1.5,4.9,3.7,6.3,6.8,1.4,3.1,1.9,7,1.4,11.9-.3,5.5-1.4,10.4-3.4,14.6-2,4.2-4.7,7.4-8,9.7-3.4,2.3-7.4,3.4-12,3.4ZM468.7,151.8c2.7,0,5.1-.7,7.1-2,2.1-1.3,3.7-3.1,4.9-5.4,1.2-2.3,1.8-5,1.8-8.1s-1-5.7-2.8-7.6c-1.9-1.9-4.5-2.8-7.9-2.8s-5,.7-7.1,2-3.8,3.1-4.9,5.4c-1.2,2.3-1.8,5-1.8,8.1s.9,5.8,2.8,7.6c1.9,1.9,4.5,2.8,7.9,2.8ZM478.1,162.4l1.8-9.4,3.1-14,1.8-14,1.9-9.7h13.7l-9.4,47.1h-13Z"/>
            <path class="st3" d="M500.3,162.4l1.7-8.2,33.7-32.9,2.2,4.6h-29.5l2.1-10.5h40.5l-1.6,8.2-33.7,32.9-2.4-4.6h31.2l-2.1,10.5h-42Z"/>
            <path class="st3" d="M551.2,162.4l9.4-47.1h13.6l-9.4,47.1h-13.6Z"/>
            <path class="st3" d="M577.4,162.4l13-65h13.7l-13,65h-13.7Z"/>
            <path class="st3" d="M603.8,162.4l9.4-47.1h13.6l-9.4,47.1h-13.6Z"/>
            <path class="st3" d="M698.5,114.6c4,0,7.3.8,10.1,2.5,2.7,1.7,4.7,4.1,5.9,7.3,1.2,3.2,1.3,7.2.3,11.9l-5.2,26.1h-13.7l5-25.1c.8-3.5.5-6.2-.7-8.1-1.2-1.9-3.4-2.8-6.4-2.8s-5.9.9-8,2.8c-2.1,1.9-3.6,4.9-4.4,9l-4.8,24.2h-13.7l5-25.1c.7-3.5.5-6.2-.7-8.1-1.2-1.9-3.3-2.8-6.3-2.8s-5.9.9-8,2.8c-2.1,1.9-3.6,4.9-4.5,9.2l-4.7,24h-13.7l9.4-47.1h13l-2.5,12-2.1-2.7c2.2-3.4,4.8-5.9,8.1-7.5,3.2-1.6,6.6-2.5,10.2-2.5s5.5.5,7.9,1.6c2.3,1.1,4.2,2.6,5.7,4.7,1.5,2.1,2.3,4.7,2.6,7.7l-5.3-1.3c2.3-4.1,5.3-7.3,9-9.5,3.6-2.2,7.8-3.2,12.5-3.2Z"/>
          </g>
        </g>
      </g>
    </g>
  </g>
</svg>